<svg preserveAspectRatio="none" overflow="visible" style="display: block;" width="790.218" height="563.6" viewBox="0 0 790.218 563.6" fill="none" xmlns="http://www.w3.org/2000/svg">
<g id="Vector" style="mix-blend-mode:soft-light">
<path fill-rule="evenodd" clip-rule="evenodd" d="M3.61696 10.9667C5.73209 7.60903 8.66362 4.84211 12.1378 2.92433C15.612 1.00655 19.5155 0.000457519 23.4839 1.87642e-07H271.233C275.662 -0.000559628 280.001 1.25151 283.749 3.61169C287.497 5.97187 290.502 9.34391 292.415 13.3385L395.108 227.507L497.8 13.3385C499.714 9.34391 502.718 5.97187 506.466 3.61169C510.214 1.25151 514.553 -0.000559628 518.982 1.87642e-07H766.731C770.701 -0.000501546 774.606 1.00521 778.081 2.92317C781.556 4.84112 784.489 7.60872 786.604 10.9674C788.72 14.3261 789.95 18.1663 790.178 22.1291C790.407 26.092 789.628 30.0482 787.913 33.6281L540.235 550.074C538.341 554.112 535.337 557.529 531.573 559.924C527.81 562.319 523.443 563.594 518.982 563.6H271.233C266.804 563.601 262.465 562.348 258.717 559.988C254.969 557.628 251.964 554.256 250.051 550.261L2.30189 33.6281C0.587862 30.0476 -0.190531 26.091 0.0394463 22.128C0.269423 18.165 1.50026 14.325 3.61696 10.9667ZM519.076 77.8003L605.636 258.317H432.517L519.076 77.8003ZM60.9163 46.9667L147.476 227.483L234.035 46.9667H60.9163ZM271.327 77.8003L357.887 258.317H184.767L271.327 77.8003ZM556.368 46.9667L642.927 227.483L729.51 46.9667H556.368ZM519.076 485.8L432.517 305.283H605.636L519.076 485.8ZM481.761 516.633L395.202 336.117L308.642 516.633H481.761ZM271.35 485.8L184.744 305.283H357.863L271.303 485.8H271.35Z" fill="#2E2E2E"/>
</g>
</svg>
